name C:\Users\u0101727\Documents\MyRepositories\upper-imu-dc\Results\main_tracking\Case_31\FLX01_linearAccelerations_bodyFrame.mot
datacolumns 4
datarows 94
range 0.51000000 1.44000000
endheader 
time	radius_imu_x	radius_imu_y	radius_imu_z	
          0.51000000	         -5.16363867	          9.96734532	          6.15165602	
          0.52000000	         -3.46111267	          9.75676450	          4.80338859	
          0.53000000	         -2.36654145	          9.70490983	          3.98940511	
          0.54000000	         -1.68509563	          9.66877674	          3.59114283	
          0.55000000	         -1.29137413	          9.63541447	          3.47520867	
          0.56000000	         -1.08015850	          9.60463085	          3.51454976	
          0.57000000	         -0.98907802	          9.57735602	          3.61331496	
          0.58000000	         -0.98892074	          9.55382144	          3.71575549	
          0.59000000	         -1.06888638	          9.53453366	          3.80077837	
          0.60000000	         -1.22358055	          9.52125610	          3.86865678	
          0.61000000	         -1.44079769	          9.51782492	          3.92707349	
          0.62000000	         -1.69097605	          9.53060408	          3.98099805	
          0.63000000	         -1.92756830	          9.56670614	          4.02740143	
          0.64000000	         -2.10232860	          9.62996141	          4.05507567	
          0.65000000	         -2.18793220	          9.71733185	          4.04919931	
          0.66000000	         -2.19460273	          9.81831393	          3.99816478	
          0.67000000	         -2.16970199	          9.91784973	          3.89917816	
          0.68000000	         -2.17915357	         10.00125821	          3.76012144	
          0.69000000	         -2.28095370	         10.05873511	          3.59708976	
          0.70000000	         -2.50511367	         10.08753905	          3.42912379	
          0.71000000	         -2.84852661	         10.09150920	          3.27283296	
          0.72000000	         -3.28299987	         10.07903503	          3.13922926	
          0.73000000	         -3.76872139	         10.06083489	          3.03344796	
          0.74000000	         -4.26660054	         10.04793328	          2.95632696	
          0.75000000	         -4.74627668	         10.04983409	          2.90646963	
          0.76000000	         -5.18928678	         10.07305701	          2.88175915	
          0.77000000	         -5.58906140	         10.12006105	          2.87963807	
          0.78000000	         -5.94977994	         10.18839146	          2.89626696	
          0.79000000	         -6.28460911	         10.27010066	          2.92539937	
          0.80000000	         -6.61230389	         10.35230266	          2.95789108	
          0.81000000	         -6.95116857	         10.42039417	          2.98263417	
          0.82000000	         -7.31119810	         10.46389358	          2.98913969	
          0.83000000	         -7.68733128	         10.48197055	          2.97068501	
          0.84000000	         -8.05759216	         10.48529584	          2.92620486	
          0.85000000	         -8.38847644	         10.49335261	          2.85988467	
          0.86000000	         -8.64668757	         10.52866091	          2.77865328	
          0.87000000	         -8.81109461	         10.61017935	          2.68892305	
          0.88000000	         -8.88040726	         10.74769391	          2.59380399	
          0.89000000	         -8.87187131	         10.93913535	          2.49200717	
          0.90000000	         -8.81272446	         11.17284482	          2.37876153	
          0.91000000	         -8.72814875	         11.43282418	          2.24781554	
          0.92000000	         -8.63131462	         11.70589010	          2.09426505	
          0.93000000	         -8.51880829	         11.98231209	          1.91544517	
          0.94000000	         -8.37096610	         12.25447600	          1.71115517	
          0.95000000	         -8.15413849	         12.51594311	          1.48436247	
          0.96000000	         -7.82510713	         12.76265326	          1.24300400	
          0.97000000	         -7.33920270	         12.99468677	          1.00305825	
          0.98000000	         -6.66467261	         13.21363519	          0.78936512	
          0.99000000	         -5.79903352	         13.42056779	          0.63381470	
          1.00000000	         -4.78544354	         13.61516576	          0.57016088	
          1.01000000	         -3.71220598	         13.78674299	          0.61319797	
          1.02000000	         -2.70068047	         13.93808656	          0.76202107	
          1.03000000	         -1.87691606	         14.04592536	          0.99716449	
          1.04000000	         -1.31582912	         14.11170278	          1.24509208	
          1.05000000	         -1.03046659	         14.10365698	          1.51730767	
          1.06000000	         -1.07958265	         14.03990627	          1.72518856	
          1.07000000	         -1.39772355	         13.92537301	          1.89654335	
          1.08000000	         -1.95528828	         13.80266360	          1.99513083	
          1.09000000	         -2.62251527	         13.69887418	          2.05610290	
          1.10000000	         -3.28408503	         13.66047411	          2.07825764	
          1.11000000	         -3.78907715	         13.70754167	          2.10075622	
          1.12000000	         -4.05068994	         13.84339277	          2.13144300	
          1.13000000	         -4.00758367	         14.04745802	          2.19514425	
          1.14000000	         -3.66194869	         14.28588191	          2.30641424	
          1.15000000	         -3.08983788	         14.50120594	          2.45453743	
          1.16000000	         -2.34429520	         14.62087940	          2.62847778	
          1.17000000	         -1.55422225	         14.64199210	          2.82970210	
          1.18000000	         -0.81208299	         14.57705444	          3.05652316	
          1.19000000	         -0.16470437	         14.42673142	          3.29706358	
          1.20000000	          0.39090399	         14.20654901	          3.54615677	
          1.21000000	          0.90207777	         13.93788072	          3.80479061	
          1.22000000	          1.44076689	         13.64056092	          4.07798612	
          1.23000000	          2.07172060	         13.32366459	          4.37075984	
          1.24000000	          2.81900735	         12.98142248	          4.68388312	
          1.25000000	          3.64957121	         12.59644991	          5.01077821	
          1.26000000	          4.48970294	         12.14901190	          5.33796577	
          1.27000000	          5.26540421	         11.62719142	          5.64987413	
          1.28000000	          5.93840632	         11.03254996	          5.93540614	
          1.29000000	          6.51749065	         10.37923385	          6.19221745	
          1.30000000	          7.04111084	          9.68817340	          6.42603430	
          1.31000000	          7.54524620	          8.98026607	          6.64617610	
          1.32000000	          8.04009341	          8.27197637	          6.86128279	
          1.33000000	          8.50487278	          7.57412071	          7.07746313	
          1.34000000	          8.89574675	          6.89309852	          7.29846075	
          1.35000000	          9.16201359	          6.23338055	          7.52716362	
          1.36000000	          9.26458866	          5.59973279	          7.76746391	
          1.37000000	          9.19073924	          4.99821442	          8.02505077	
          1.38000000	          8.96328609	          4.43657292	          8.30643929	
          1.39000000	          8.64342966	          3.92400680	          8.61567679	
          1.40000000	          8.31412481	          3.46904254	          8.95146881	
          1.41000000	          8.06750206	          3.08821412	          9.29668581	
          1.42000000	          7.88556967	          2.77384091	          9.58216567	
          1.43000000	          7.81753741	          2.54622439	          9.91632127	
          1.44000000	          7.67385310	          2.27890716	         10.23032285	
